<svg width="24" height="24" viewBox="0 0 24 24" fill="none" xmlns="http://www.w3.org/2000/svg">
<path fill-rule="evenodd" clip-rule="evenodd" d="M1.40332 12.0001C1.40332 9.18967 2.51977 6.49434 4.50705 4.50705C6.49434 2.51977 9.18967 1.40332 12.0001 1.40332C14.8106 1.40332 17.5059 2.51977 19.4932 4.50705C21.4805 6.49434 22.5969 9.18967 22.5969 12.0001C22.5969 14.8106 21.4805 17.5059 19.4932 19.4932C17.5059 21.4805 14.8106 22.5969 12.0001 22.5969C9.18967 22.5969 6.49434 21.4805 4.50705 19.4932C2.51977 17.5059 1.40332 14.8106 1.40332 12.0001ZM12.0001 2.92332C9.5928 2.92332 7.28408 3.87962 5.58185 5.58185C3.87962 7.28408 2.92332 9.5928 2.92332 12.0001C2.92332 14.4074 3.87962 16.7162 5.58185 18.4184C7.28408 20.1206 9.5928 21.0769 12.0001 21.0769C14.4074 21.0769 16.7162 20.1206 18.4184 18.4184C20.1206 16.7162 21.0769 14.4074 21.0769 12.0001C21.0769 9.5928 20.1206 7.28408 18.4184 5.58185C16.7162 3.87962 14.4074 2.92332 12.0001 2.92332ZM15.7665 8.23532C15.9165 8.38534 16.0007 8.58879 16.0007 8.80092C16.0007 9.01305 15.9165 9.2165 15.7665 9.36652L13.1313 12.0001L15.7665 14.6337C15.9167 14.7839 16.0011 14.9877 16.0011 15.2001C16.0011 15.4126 15.9167 15.6163 15.7665 15.7665C15.6163 15.9167 15.4126 16.0011 15.2001 16.0011C14.9877 16.0011 14.7839 15.9167 14.6337 15.7665L12.0001 13.1313L9.36652 15.7665C9.29214 15.8409 9.20384 15.8999 9.10665 15.9402C9.00947 15.9804 8.90531 16.0011 8.80012 16.0011C8.69493 16.0011 8.59077 15.9804 8.49359 15.9402C8.3964 15.8999 8.3081 15.8409 8.23372 15.7665C8.15934 15.6921 8.10034 15.6038 8.06008 15.5067C8.01983 15.4095 7.99911 15.3053 7.99911 15.2001C7.99911 15.0949 8.01983 14.9908 8.06008 14.8936C8.10034 14.7964 8.15934 14.7081 8.23372 14.6337L10.8689 12.0001L8.23372 9.36652C8.0835 9.2163 7.99911 9.01256 7.99911 8.80012C7.99911 8.58768 8.0835 8.38394 8.23372 8.23372C8.38394 8.0835 8.58768 7.99911 8.80012 7.99911C9.01256 7.99911 9.2163 8.0835 9.36652 8.23372L12.0001 10.8689L14.6337 8.23372C14.708 8.15922 14.7963 8.10011 14.8935 8.05978C14.9907 8.01945 15.0949 7.99869 15.2001 7.99869C15.3053 7.99869 15.4095 8.01945 15.5067 8.05978C15.6039 8.10011 15.6922 8.15922 15.7665 8.23372V8.23532Z" fill="#E90D41"/>
</svg>
